<?xml version="1.0" encoding="utf-8"?>
<!-- Generator: Adobe Illustrator 25.0.0, SVG Export Plug-In . SVG Version: 6.00 Build 0)  -->
<svg version="1.1" id="Capa_1" xmlns="http://www.w3.org/2000/svg" xmlns:xlink="http://www.w3.org/1999/xlink" x="0px" y="0px"
	 viewBox="0 0 469.9 469.9" style="enable-background:new 0 0 469.9 469.9;" xml:space="preserve">
<style type="text/css">
	.st0{fill:#DB9E67;}
	.st1{fill:#B4732D;}
	.st2{fill:#A4E869;}
	.st3{fill:#54CE3E;}
	.st4{fill:#4CAF50;}
</style>
<g>
	<path class="st0" d="M259.3,411c-25.6,11.5-52.9,13.9-78.4,8.6c-39-8.1-73.7-34.1-91.3-73.3c-29-64.7,0-140.6,64.7-169.6
		c16.5-7.4,40.8-14.2,68.2-19.1c80.3-14.4,188-12.9,209.6,35.3C461.2,257.5,324,382,259.3,411z"/>
	<g>
		<path class="st1" d="M253.6,294.7c0,53.4-29.3,100.1-72.7,124.8c-39-8.1-73.7-34.1-91.3-73.3c-29-64.7,0-140.6,64.7-169.6
			c16.5-7.4,40.8-14.2,68.2-19.1C241.2,205.6,253.6,259.6,253.6,294.7z"/>
		<path class="st1" d="M259.3,411c-64.7,29-140.6,0-169.6-64.7c-1.2-2.6-2.2-5.2-3.2-7.8c31.3,59.3,103.8,84.9,165.9,57.1
			c62.1-27.8,191-143.6,175.6-210.1c1.6,2.3,3,4.8,4.2,7.4C461.2,257.5,324,382,259.3,411z"/>
		<path class="st1" d="M144.6,255.4c-2.1,0-4.3-1-5.6-2.9c-2.2-3.1-1.5-7.4,1.6-9.6c61.3-43.6,118.8-57.5,156.3-61.5
			c40.9-4.4,67,1.6,68.1,1.9c3.7,0.9,6,4.6,5.1,8.2c-0.9,3.7-4.6,6-8.2,5.1l0,0c-0.3-0.1-25.4-5.8-64.2-1.5
			c-35.7,3.9-90.5,17.3-149.1,59C147.4,255,146,255.4,144.6,255.4z"/>
		<path class="st1" d="M206.4,385.7c-3.5,0-6.5-2.6-6.8-6.2c-0.4-3.8,2.4-7.1,6.1-7.5c52.1-5.3,91.2-44.6,91.6-45
			c2.7-2.7,7-2.7,9.7-0.1c2.7,2.7,2.7,7,0.1,9.7c-1.7,1.8-43,43.2-100,49C206.9,385.7,206.6,385.7,206.4,385.7z"/>
		<path class="st1" d="M259.6,306.6c-2.5,0-5-1.4-6.2-3.8c-1.7-3.4-0.3-7.5,3.1-9.2l79.8-39.2c3.4-1.7,7.5-0.3,9.2,3.1
			c1.7,3.4,0.3,7.5-3.1,9.2l-79.8,39.2C261.7,306.4,260.6,306.6,259.6,306.6z"/>
	</g>
	<path class="st2" d="M312.1,288.5c0,70.9-57.5,128.4-128.4,128.4S55.4,359.4,55.4,288.5S112.9,41.6,183.7,41.6
		S312.1,217.6,312.1,288.5z"/>
	<g>
		<path class="st3" d="M312.1,288.5c0,70.9-57.5,128.4-128.4,128.4c-2.8,0-5.7-0.1-8.4-0.3c67-4.3,119.9-60,119.9-128.1
			c0-68.1-53-233-119.9-246.1c2.8-0.6,5.6-0.8,8.4-0.8C254.6,41.6,312.1,217.6,312.1,288.5z"/>
		<path class="st3" d="M117,333.7c-3.2,0-6.1-2.3-6.7-5.5c-14.7-73.7-3.9-131.9,7.8-167.8c12.7-39.1,28.9-60.5,29.6-61.4
			c2.3-3,6.6-3.6,9.6-1.3c3,2.3,3.6,6.6,1.3,9.6l0,0c-0.2,0.2-15.7,20.9-27.6,57.9c-11,34.2-21.2,89.7-7.1,160.2
			c0.7,3.7-1.7,7.3-5.4,8.1C117.9,333.7,117.5,333.7,117,333.7z"/>
		<path class="st3" d="M231.5,378c-1.8,0-3.6-0.7-4.9-2.1c-2.6-2.7-2.6-7.1,0.1-9.7c24.3-23.8,35.9-55.5,34.3-94.3
			c-1.2-29.5-9.9-52.2-10-52.4c-1.4-3.5,0.4-7.5,3.9-8.9c3.5-1.4,7.5,0.4,8.9,3.9c0.4,1,9.6,24.7,10.9,56.4
			c1.8,42.4-11.5,78.8-38.4,105.1C235,377.4,233.2,378,231.5,378z"/>
		<path class="st3" d="M210.7,249.7c-3.7,0-6.7-2.9-6.8-6.6l-3.2-88.9c-0.1-3.8,2.8-7,6.6-7.1c3.8-0.1,7,2.8,7.1,6.6l3.2,88.9
			c0.1,3.8-2.8,7-6.6,7.1C210.9,249.7,210.8,249.7,210.7,249.7z"/>
		<path class="st3" d="M162.4,389.1c-0.8,0-1.6-0.1-2.3-0.4c-18.8-6.8-33.8-23.2-34.4-23.9c-2.5-2.8-2.3-7.1,0.5-9.7
			c2.8-2.5,7.1-2.3,9.7,0.5c0.2,0.2,13.4,14.6,28.9,20.2c3.6,1.3,5.4,5.2,4.1,8.8C167.8,387.3,165.2,389.1,162.4,389.1z"/>
		<path class="st3" d="M214.6,277.7c-3.8,0-6.9-3.1-6.9-6.9v-0.6c0-3.8,3.1-6.9,6.9-6.9c3.8,0,6.9,3.1,6.9,6.9v0.6
			C221.4,274.6,218.4,277.7,214.6,277.7z"/>
		<path class="st3" d="M197.7,295.7c-3.8,0-6.9-3.1-6.9-6.9v-0.6c0-3.8,3.1-6.9,6.9-6.9s6.9,3.1,6.9,6.9v0.6
			C204.5,292.7,201.5,295.7,197.7,295.7z"/>
		<path class="st3" d="M219.5,326.4c-3.8,0-6.9-3.1-6.9-6.9V319c0-3.8,3.1-6.9,6.9-6.9c3.8,0,6.9,3.1,6.9,6.9v0.6
			C226.4,323.4,223.3,326.4,219.5,326.4z"/>
	</g>
</g>
<g>
	<path class="st0" d="M234.7,15c29.7,0,58.4,5.8,85.5,17.3c26.2,11.1,49.7,26.9,69.8,47.1c20.2,20.2,36,43.7,47.1,69.8
		c11.5,27.1,17.3,55.8,17.3,85.5c0,29.7-5.8,58.4-17.3,85.5c-11.1,26.2-26.9,49.7-47.1,69.8s-43.7,36-69.8,47.1
		c-27.1,11.5-55.8,17.3-85.5,17.3s-58.4-5.8-85.5-17.3C123,426.1,99.5,410.2,79.3,390s-36-43.7-47.1-69.8
		C20.8,293.1,15,264.4,15,234.7c0-29.7,5.8-58.4,17.3-85.5C43.3,123,59.2,99.5,79.3,79.3c20.2-20.2,43.7-36,69.8-47.1
		C176.3,20.8,205,15,234.7,15 M234.7,0C105.1,0,0,105.1,0,234.7s105.1,234.7,234.7,234.7s234.7-105.1,234.7-234.7S364.3,0,234.7,0
		L234.7,0z"/>
</g>
</svg>
