<?xml version="1.0" encoding="utf-8"?>
<!-- Generator: Adobe Illustrator 25.0.0, SVG Export Plug-In . SVG Version: 6.00 Build 0)  -->
<svg version="1.1" id="圖層_1" xmlns="http://www.w3.org/2000/svg" xmlns:xlink="http://www.w3.org/1999/xlink" x="0px" y="0px"
	 viewBox="0 0 469.9 469.9" style="enable-background:new 0 0 469.9 469.9;" xml:space="preserve">
<style type="text/css">
	.img2st0{fill:#F3D55B;}
	.img2st1{fill:#F0C419;}
	.img2st2{fill:#14A085;}
	.img2st3{fill:#F29C1F;}
	.img2st4{fill:#26B99A;}
	.img2st5{fill:#4CAF50;}
</style>
<g>
	<path id="Shape" class="img2st0" d="M288.4,257.9c-9.6,36.8-31.3,93.7-75.9,113.2c-52.2,23.1-120.7-11.3-149.8-28.5
		c-8.7-5.1-13.2-15.3-11.1-25.2c7.1-33.1,27.6-106.9,79.8-129.9c44.6-19.7,101,2.4,134.6,20c0.1,2.6-0.1,5.2-0.3,7.7
		c-0.9,9.9-4.7,19.4-10.8,27.2c5.6,1.3,11,3.1,16.3,5.3C277.4,250.2,283.2,253.6,288.4,257.9z"/>
	<path id="Shape_1_" class="img2st1" d="M73.4,328c-3.2-0.7-5.2-3.8-4.5-7c4.8-22.3,22.9-96.9,69.6-117.5c16.1-6.8,35.8-8,59.5-2.9
		c3.2,0.7,5.2,3.8,4.5,7c-0.7,3.2-3.8,5.2-7,4.5c-21-4.5-38.5-3.7-52.2,2.3c-42.6,19.1-59.6,94-62.9,109
		C79.8,326.6,76.6,328.7,73.4,328L73.4,328z"/>
	<path id="Shape_2_" class="img2st1" d="M146,358c-3.2-0.7-5.2-3.8-4.5-7c0.7-3.2,3.8-5.2,7-4.5c21,4.5,38.5,3.7,52.1-2.4
		c3-1.3,6.5,0,7.8,3c1.3,3,0,6.5-3,7.8C189.4,362,169.4,363,146,358z"/>
	<path id="Shape_3_" class="img2st2" d="M410.2,259.8c-12.8,16.7-37.9,23.2-62.9,8.1c-4.9-3.1-9.3-6.7-13.3-10.8c-4-5.2-9-9.6-14.7-13
		c-5.8-2.4-12.3-2.8-18.4-1.1c-6.3,1.7-12.3,4.1-18,7.2c-5.3-2.2-10.7-4-16.3-5.3c6.2-7.8,9.9-17.3,10.8-27.2
		c23.9-17.8,52.8-18.9,74.1-2.6c3.6,2.7,7,5.7,10.2,8.9c5.7,5.3,16.9,12.7,20.3,8.5c1.7-4.1,2.3-8.5,1.7-12.9
		c-1.2-9.8-3.2-19.4-5.9-28.9l13.5-6.4C416.9,201.5,428.3,236.1,410.2,259.8L410.2,259.8z"/>
	<path id="Shape_4_" class="img2st3" d="M302.1,276.7c-1.9-0.4-3.5-1.8-4.2-3.6c-5.5-13.8-29.5-21.7-38.3-23.6c-2-0.4-3.6-1.9-4.3-3.8
		s-0.3-4.1,1-5.7c8.7-11.8,11.9-26.7,8.8-41c-0.8-3.1,1.1-6.4,4.2-7.2c1.5-0.4,3.1-0.2,4.5,0.6c1.4,0.8,2.4,2.1,2.7,3.6
		c3.3,15,1.1,30.6-6.1,44.2c11.6,3.8,32.1,12.4,38.4,28.6c1.2,3-0.3,6.4-3.3,7.6C304.5,276.9,303.3,277,302.1,276.7L302.1,276.7z"/>
	<path id="Shape_5_" class="img2st4" d="M384.2,100c19.1,28.6,11,69.2,6.7,85.2c-1.1,4-5.1,6.6-9.2,5.9c-16.5-2.1-57-10.3-76.2-38.9
		c-19.2-28.6-11-68.9-6.8-85c1-4.1,5-6.8,9.2-6.1C324.5,63.2,365.1,71.4,384.2,100z"/>
	<path id="Shape_6_" class="img2st2" d="M385.3,196.4c-2.6-0.4-4.7-2.6-4.9-5.3c-0.8-8-7.1-49.9-55.7-91.5c-1.6-1.4-2.3-3.6-1.9-5.7
		c0.4-2.1,1.9-3.8,4-4.5c2-0.7,4.3-0.2,5.9,1.2c51.9,44.7,59.1,90.6,59.6,99.3c0.3,3.2-2.1,6.1-5.3,6.4
		C386.4,196.5,385.8,196.5,385.3,196.4L385.3,196.4z"/>
</g>
<g>
	<path class="img2st5" d="M234.7,15c29.7,0,58.4,5.8,85.5,17.3c26.2,11.1,49.7,26.9,69.8,47.1c20.2,20.2,36,43.7,47.1,69.8
		c11.5,27.1,17.3,55.8,17.3,85.5c0,29.7-5.8,58.4-17.3,85.5c-11.1,26.2-26.9,49.7-47.1,69.8s-43.7,36-69.8,47.1
		c-27.1,11.5-55.8,17.3-85.5,17.3s-58.4-5.8-85.5-17.3C123,426.1,99.5,410.2,79.3,390s-36-43.7-47.1-69.8
		C20.8,293.1,15,264.4,15,234.7c0-29.7,5.8-58.4,17.3-85.5C43.3,123,59.2,99.5,79.3,79.3c20.2-20.2,43.7-36,69.8-47.1
		C176.3,20.8,205,15,234.7,15 M234.7,0C105.1,0,0,105.1,0,234.7s105.1,234.7,234.7,234.7s234.7-105.1,234.7-234.7S364.3,0,234.7,0
		L234.7,0z"/>
</g>
</svg>
