<?xml version="1.0" encoding="utf-8"?>
<!-- Generator: Adobe Illustrator 25.0.0, SVG Export Plug-In . SVG Version: 6.00 Build 0)  -->
<svg version="1.1" id="Capa_1" xmlns="http://www.w3.org/2000/svg" xmlns:xlink="http://www.w3.org/1999/xlink" x="0px" y="0px"
	 viewBox="0 0 469.8 469.8" style="enable-background:new 0 0 469.8 469.8;" xml:space="preserve">
<style type="text/css">
	.st0{fill:#4CAF50;}
	.st1{fill:#388E3C;}
</style>
<g>
	<g>
		<path class="st0" d="M212.2,135.7c-29.5-29.5-87.3-32.9-128.2-32.9c-4.2,0-7.7,3.4-7.7,7.7c0,40.9,3.4,98.7,32.9,128.2
			c13.9,12.3,32,18.8,50.5,18c19.1,0.8,37.8-5.7,52.4-18C234.2,216.7,238.3,161.8,212.2,135.7z"/>
		<path class="st0" d="M406.6,133.2c-40.9,0-98.7,3.4-128.2,32.9c-26.1,26.1-22,80.9,0,102.9c14.6,12.4,33.3,18.8,52.4,18
			c18.5,0.8,36.6-5.7,50.5-18c29.5-29.5,32.9-87.3,32.9-128.2C414.3,136.6,410.8,133.2,406.6,133.2z"/>
	</g>
	<path class="st1" d="M237.8,440.3c-4.2,0-7.7-3.4-7.7-7.7c0-162.7-59.7-203.5-82.1-218.9c-2.7-1.7-5.3-3.7-7.7-5.8
		c-2.9-3-2.9-7.9,0.2-10.8c3-2.9,7.7-2.9,10.7,0c1.7,1.5,3.6,2.8,5.5,4c19.9,13.6,66.9,45.8,83.2,151.2
		c12.6-55.1,49.8-101.4,100.9-125.5c3.9-1.8,8.6-0.4,10.7,3.4c1.9,3.4,0.7,7.8-2.7,9.7c-0.1,0.1-0.3,0.1-0.4,0.2l-1.2,0.6
		c-84.1,39.5-101.8,126.2-101.8,191.9C245.5,436.9,242.1,440.3,237.8,440.3z"/>
</g>
<g>
	<path class="st0" d="M234.7,15c29.7,0,58.4,5.8,85.5,17.3c26.2,11.1,49.7,26.9,69.8,47.1c20.2,20.2,36,43.7,47.1,69.8
		c11.5,27.1,17.3,55.8,17.3,85.5c0,29.7-5.8,58.4-17.3,85.5c-11.1,26.2-26.9,49.7-47.1,69.8s-43.7,36-69.8,47.1
		c-27.1,11.5-55.8,17.3-85.5,17.3s-58.4-5.8-85.5-17.3C123,426.1,99.5,410.2,79.3,390s-36-43.7-47.1-69.8
		C20.8,293.1,15,264.4,15,234.7c0-29.7,5.8-58.4,17.3-85.5C43.3,123,59.2,99.5,79.3,79.3c20.2-20.2,43.7-36,69.8-47.1
		C176.3,20.8,205,15,234.7,15 M234.7,0C105.1,0,0,105.1,0,234.7s105.1,234.7,234.7,234.7s234.7-105.1,234.7-234.7S364.3,0,234.7,0
		L234.7,0z"/>
</g>
</svg>
