<?xml version="1.0" encoding="utf-8"?>
<!-- Generator: Adobe Illustrator 25.0.0, SVG Export Plug-In . SVG Version: 6.00 Build 0)  -->
<svg version="1.1" id="Capa_1" xmlns="http://www.w3.org/2000/svg" xmlns:xlink="http://www.w3.org/1999/xlink" x="0px" y="0px"
	 viewBox="0 0 468 468" style="enable-background:new 0 0 468 468;" xml:space="preserve">
<style type="text/css">
	.st0{fill:#4CAF50;}
	.st1{fill:#388E3C;}
</style>
<g>
	<path class="st0" d="M404.8,163.2c0.4-2.5,0.6-5,0.7-7.5c-0.1-47.9-40.6-86.8-90.6-86.9c-12.9,0-25.6,2.8-37.3,8
		c-20.2-26.1-58.6-31.6-85.9-12.2c-10.3,7.3-18,17.6-21.9,29.3c-11-6.1-23.5-9.3-36.3-9.3c-41,0-74.2,31.8-74.2,71.1
		c0.1,6.8,1.2,13.6,3.3,20.2c-12.8,15.7-19.8,35-19.8,54.9c-0.3,49.9,41.7,90.5,93.8,90.8c9.5,0,18.9-1.3,27.9-3.9l123.5,0.5
		c8.7,2.3,17.7,3.4,26.7,3.5c59.2,0,107.1-46,107.1-102.7C421.9,199,416,179.7,404.8,163.2z"/>
	<path class="st1" d="M364.4,229c-15.8-15.8-78.3-17.9-101.8-18.1c-7.1-30.5-9.3-62-6.5-93.3c0.8-4.3-2-8.4-6.3-9.2
		c-2.6-0.5-5.2,0.3-7.1,2.2c-17.6,17.6-40.9,93.1-47.7,116.1h-88.8c-4.4,0-7.9,3.5-7.9,7.9c0,3.4,2.2,6.4,5.4,7.5
		c0.7,0.2,63.4,21.1,88.4,42.5c-3.7,46.8-3.3,93.8,0.9,140.5c0.5,4,3.9,6.9,7.8,6.9h79c4.4,0,7.9-3.5,7.9-7.9c0-0.6-0.1-1.2-0.2-1.8
		c-8.4-34.7-29.5-126.6-31.3-153c19.3-18.5,64.8-26.8,102.5-26.8c4.4,0,7.9-3.5,7.9-7.9C366.7,232.5,365.9,230.5,364.4,229z"/>
</g>
<g>
	<path class="st0" d="M234.7,15c29.7,0,58.4,5.8,85.5,17.3c26.2,11.1,49.7,26.9,69.8,47.1c20.2,20.2,36,43.7,47.1,69.8
		c11.5,27.1,17.3,55.8,17.3,85.5c0,29.7-5.8,58.4-17.3,85.5c-11.1,26.2-26.9,49.7-47.1,69.8s-43.7,36-69.8,47.1
		c-27.1,11.5-55.8,17.3-85.5,17.3s-58.4-5.8-85.5-17.3C123,426.1,99.5,410.2,79.3,390s-36-43.7-47.1-69.8
		C20.8,293.1,15,264.4,15,234.7c0-29.7,5.8-58.4,17.3-85.5C43.3,123,59.2,99.5,79.3,79.3c20.2-20.2,43.7-36,69.8-47.1
		C176.3,20.8,205,15,234.7,15 M234.7,0C105.1,0,0,105.1,0,234.7s105.1,234.7,234.7,234.7s234.7-105.1,234.7-234.7S364.3,0,234.7,0
		L234.7,0z"/>
</g>
</svg>
