<?xml version="1.0" encoding="utf-8"?>
<!-- Generator: Adobe Illustrator 25.0.0, SVG Export Plug-In . SVG Version: 6.00 Build 0)  -->
<svg version="1.1" id="圖層_1" xmlns="http://www.w3.org/2000/svg" xmlns:xlink="http://www.w3.org/1999/xlink" x="0px" y="0px"
	 viewBox="0 0 470 470" style="enable-background:new 0 0 470 470;" xml:space="preserve">
<style type="text/css">
	.img5st0{fill:#CB8252;}
	.img5st1{fill:#A56A43;}
	.img5st2{fill:#805333;}
	.img5st3{fill:#4FBA6F;}
	.img5st4{fill:#E64C3C;}
	.img5st5{fill:#C03A2B;}
	.img5st6{fill:#4CAF50;}
</style>
<g id="Page-1">
	<g id="_x30_36---Tree" transform="translate(0 -1)">
		<path id="Shape" class="img5st0" d="M201.6,234.9c6.3,7.6,13.9,17.7,13.9,24.2v38.7c0,5.5-16.6,11.1-22.1,27.6l44.2,5.5l44.2-5.5
			c-5.5-16.6-22.1-22.1-22.1-27.6v-38.7c0-10.3,19.2-30.2,22.1-32.8l-8.7-28h-63.7L201.6,234.9z"/>
		<path id="Shape_1_" class="img5st1" d="M386.9,347.5h-11.1v-11.1c0-6.1-5-11.1-11.1-11.1H110.5c-6.1,0-11.1,5-11.1,11.1v11.1H88.4
			c-6.1,0-11.1,5-11.1,11.1v11.1H398v-11.1C398,352.5,393,347.5,386.9,347.5z"/>
		<path id="Shape_2_" class="img5st2" d="M88.4,347.5h298.6c6.1,0,11.1,5,11.1,11.1v11.1H77.3v-11.1C77.3,352.5,82.3,347.5,88.4,347.5z"
			/>
		<path id="Shape_3_" class="img5st1" d="M237.7,242.5c-3.1,0-5.5-2.5-5.5-5.5v-16.6c0-3.1,2.5-5.5,5.5-5.5c3.1,0,5.5,2.5,5.5,5.5V237
			C243.2,240,240.7,242.5,237.7,242.5z"/>
		<path id="Shape_4_" class="img5st3" d="M338.8,135.1c12.1-17.8,12.7-41,1.7-59.4S308.8,46.8,287.4,49c-21.4,2.2-39.5,16.7-46.5,37
			c-10.1-8.7-24-11.6-36.8-7.6c-12.7,4-22.6,14.2-25.9,27.1c-17,4.5-28.9,19.8-28.9,37.4v1.1c-26.6,5.4-45.4,29.4-44.2,56.5
			s21.9,49.4,48.9,52.6c27,3.1,52.3-13.9,59.6-40.1c17.6,11.5,40.9,9,55.7-5.9c9.1,24,33.5,38.6,58.9,35.2
			c25.4-3.3,45.2-23.7,47.8-49.3c2.6-25.5-12.7-49.5-37-57.8V135.1z"/>
		<g>
			<circle id="Oval" class="img5st4" cx="171.3" cy="187.2" r="16.6"/>
			<circle id="Oval_1_" class="img5st4" cx="293" cy="143" r="16.6"/>
			<circle id="Oval_2_" class="img5st4" cx="226.6" cy="126.4" r="11.1"/>
			<circle id="Oval_3_" class="img5st4" cx="315.1" cy="198.3" r="11.1"/>
		</g>
		<circle id="Oval_4_" class="img5st5" cx="243.2" cy="176.1" r="5.5"/>
		<circle id="Oval_5_" class="img5st5" cx="287.4" cy="87.7" r="5.5"/>
		<circle id="Oval_6_" class="img5st5" cx="193.4" cy="148.5" r="5.5"/>
	</g>
</g>
<g>
	<path class="img5st6" d="M234.7,15c29.7,0,58.4,5.8,85.5,17.3c26.2,11.1,49.7,26.9,69.8,47.1c20.2,20.2,36,43.7,47.1,69.8
		c11.5,27.1,17.3,55.8,17.3,85.5c0,29.7-5.8,58.4-17.3,85.5c-11.1,26.2-26.9,49.7-47.1,69.8s-43.7,36-69.8,47.1
		c-27.1,11.5-55.8,17.3-85.5,17.3s-58.4-5.8-85.5-17.3C123,426.1,99.5,410.2,79.3,390s-36-43.7-47.1-69.8
		C20.8,293.1,15,264.4,15,234.7c0-29.7,5.8-58.4,17.3-85.5C43.3,123,59.2,99.5,79.3,79.3c20.2-20.2,43.7-36,69.8-47.1
		C176.3,20.8,205,15,234.7,15 M234.7,0C105.1,0,0,105.1,0,234.7s105.1,234.7,234.7,234.7s234.7-105.1,234.7-234.7S364.3,0,234.7,0
		L234.7,0z"/>
</g>
</svg>
