<?xml version="1.0" encoding="utf-8"?>
<!-- Generator: Adobe Illustrator 25.0.0, SVG Export Plug-In . SVG Version: 6.00 Build 0)  -->
<svg version="1.1" id="圖層_1" xmlns="http://www.w3.org/2000/svg" xmlns:xlink="http://www.w3.org/1999/xlink" x="0px" y="0px"
	 viewBox="0 0 26.9 26.9" style="enable-background:new 0 0 26.9 26.9;" xml:space="preserve">
<style type="text/css">
	.cuponst0{fill:none;stroke:#8FBB72;stroke-linecap:round;stroke-linejoin:round;stroke-miterlimit:10;}
	.st1{fill:none;stroke:#8FBB72;stroke-linecap:round;stroke-linejoin:round;}
	.st2{fill:none;stroke:#8FBB72;stroke-linecap:round;stroke-linejoin:round;stroke-dasharray:0.888,1.777;}
</style>
<g>
	<path class="cuponst0" d="M0.6,10.5c1.6,0,3,1.3,3,3c0,1.6-1.3,3-3,3"/>
	<path class="cuponst0" d="M0.8,16.4l-0.2,0v4.4h25.8v-4.4c-1.6,0-3-1.3-3-3s1.3-3,3-3V6.5H0.6v3.9h0"/>
	<line class="st1" x1="8.6" y1="8" x2="8.6" y2="8.5"/>
	<line class="st2" x1="8.6" y1="10.3" x2="8.6" y2="17.4"/>
	<line class="st1" x1="8.6" y1="18.3" x2="8.6" y2="18.8"/>
	<path class="cuponst0" d="M14.7,10.6c0,0.7-0.6,1.3-1.3,1.3s-1.3-0.6-1.3-1.3c0-0.7,0.6-1.3,1.3-1.3S14.7,9.9,14.7,10.6z"/>
	<path class="cuponst0" d="M19.9,16.1c0,0.7-0.6,1.3-1.3,1.3s-1.3-0.6-1.3-1.3c0-0.7,0.6-1.3,1.3-1.3S19.9,15.4,19.9,16.1z"/>
	<line class="cuponst0" x1="19.5" y1="10" x2="12.6" y2="16.8"/>
</g>
</svg>
