<?xml version="1.0" encoding="utf-8"?>
<!-- Generator: Adobe Illustrator 25.0.0, SVG Export Plug-In . SVG Version: 6.00 Build 0)  -->
<svg version="1.1" id="圖層_1" xmlns="http://www.w3.org/2000/svg" xmlns:xlink="http://www.w3.org/1999/xlink" x="0px" y="0px"
	 viewBox="0 0 26.9 26.9" style="enable-background:new 0 0 26.9 26.9;" xml:space="preserve">
<style type="text/css">
	.giftst0{fill:none;stroke:#8FBB72;stroke-miterlimit:10;}
</style>
<g>
	<path class="giftst0" d="M25.5,13.3H1.3c-0.4,0-0.8-0.4-0.8-0.8V7.8C0.5,7.4,0.9,7,1.3,7h24.2c0.4,0,0.8,0.4,0.8,0.8v4.6
		C26.3,12.9,25.9,13.3,25.5,13.3z"/>
	<path class="giftst0" d="M24.5,26.4H2.3c-0.5,0-0.8-0.4-0.8-0.8V14.1c0-0.5,0.4-0.8,0.8-0.8h22.3c0.5,0,0.8,0.4,0.8,0.8v11.5
		C25.4,26,25,26.4,24.5,26.4z"/>
	<line class="giftst0" x1="13.4" y1="7" x2="13.4" y2="26.4"/>
	<path class="giftst0" d="M12.7,6.3c0,0-7.1-0.7-6.6-3.7c0.5-3,3.1-2.1,4.3-1.1c1.2,1.1,2.5,3.3,2.8,4.4v0.4H12.7z"/>
	<path class="giftst0" d="M14.1,6.3c0,0,7.1-0.7,6.6-3.7c-0.5-3-3.1-2.1-4.3-1.1c-1.2,1.1-2.5,3.3-2.8,4.4v0.4H14.1z"/>
</g>
</svg>
