<?xml version="1.0" encoding="utf-8"?>
<!-- Generator: Adobe Illustrator 25.0.0, SVG Export Plug-In . SVG Version: 6.00 Build 0)  -->
<svg version="1.1" id="圖層_1" xmlns="http://www.w3.org/2000/svg" xmlns:xlink="http://www.w3.org/1999/xlink" x="0px" y="0px"
	 viewBox="0 0 23.7 23.7" style="enable-background:new 0 0 23.7 23.7;" xml:space="preserve">
<style type="text/css">
	.grassst0{clip-path:url(#SVGID_2_);fill:#8FBB72;}
	.grassst1{clip-path:url(#SVGID_2_);fill:#FFFFFF;}
</style>
<g>
	<defs>
		<path id="SVGID_1_" d="M0,11.8c0,6.5,5.3,11.8,11.8,11.8c6.5,0,11.8-5.3,11.8-11.8C23.6,5.3,18.3,0,11.8,0C5.3,0,0,5.3,0,11.8"/>
	</defs>
	<clipPath id="SVGID_2_">
		<use xlink:href="#SVGID_1_"  style="overflow:visible;"/>
	</clipPath>
	<path class="grassst0" d="M23.6,11.8C23.6,5.3,18.3,0,11.8,0S0,5.3,0,11.8c0,6.5,5.3,11.8,11.8,11.8S23.6,18.3,23.6,11.8"/>
	<path class="grassst1" d="M11.2,4.4v9.9c0,0.9-1.1,1.4-2.1,1.1v-1.3H7.2c-0.4,3.6-2,8.1-7.2,10.1c-0.5,0.2-0.6-0.3-0.3-0.5
		c3.8-2.7,5.1-5.9,5.4-9.6H3.5v-0.1c0,0.9-1,1.4-2.1,1.2V3.7L3,4C3.4,4,3.5,4.2,3.5,4.4v8.4h1.7v-0.7V-0.6l1.7,0.4
		c0.3,0.1,0.4,0.2,0.4,0.4v11.4c0,0.4,0,0.8,0,1.2h1.8V3.6L10.8,4C11.1,4.1,11.2,4.3,11.2,4.4 M22.5,4.4v10c0,0.9-1.1,1.4-2.1,1.1
		v-1.2h-1.6v8.9c0,0.8-1.1,1.4-2.2,1.1v-10H15c-0.1,0.8-1,1.4-2.1,1.1V3.6l1.6,0.3C14.9,4,15,4.2,15,4.3v8.4h1.6V-0.7l1.7,0.4
		c0.3,0.1,0.4,0.3,0.4,0.4v12.6h1.6V3.6L22.1,4C22.4,4,22.5,4.2,22.5,4.4"/>
</g>
</svg>
