<svg xmlns="http://www.w3.org/2000/svg" viewBox="0 0 61.25 38.55"><defs><style>.cls-1{fill:#93c274;}.cls-2{fill:#b8d5a6;}.cls-3{fill:#dce9d7;}</style></defs><title>資產 3</title><g id="圖層_2" data-name="圖層 2"><g id="圖層_1-2" data-name="圖層 1"><polygon class="cls-1" points="52.28 22.55 61.25 18.25 61.25 23.89 52.28 28.19 30.63 38.55 8.97 28.19 0 23.89 0 18.25 8.97 22.55 30.63 32.92 52.28 22.55"/><polygon class="cls-1" points="61.25 18.25 61.25 23.89 52.28 28.19 30.63 38.55 8.97 28.19 0 23.89 0 18.25 8.97 22.55 30.63 32.92 52.28 22.55 61.25 18.25"/><polygon class="cls-1" points="61.25 18.25 61.25 23.89 52.28 28.19 30.63 38.55 8.97 28.19 0 23.89 0 18.25 8.97 22.55 30.63 32.92 52.28 22.55 61.25 18.25"/><polygon class="cls-2" points="61.25 9.13 61.25 14.77 52.28 19.07 30.63 29.43 8.97 19.07 0 14.77 0 9.13 8.97 13.43 30.63 23.8 52.28 13.43 61.25 9.13"/><polygon class="cls-3" points="61.25 0 61.25 5.64 52.28 9.94 30.63 20.3 8.97 9.94 0 5.64 0 0 8.97 4.3 30.63 14.67 52.28 4.3 61.25 0"/></g></g></svg>