<svg xmlns="http://www.w3.org/2000/svg" viewBox="0 0 37.62 37.62"><defs><style>.cls-1{fill:#99cb77;}.cls-2{fill:#fff;}</style></defs><title>資產 5</title><g id="圖層_2" data-name="圖層 2"><g id="圖層_1-2" data-name="圖層 1"><circle class="cls-1" cx="18.81" cy="18.81" r="18.81"/><path class="cls-2" d="M28.36,13.94a2.49,2.49,0,0,0-1.78-1.76c-1.56-.41-7.81-.37-7.81-.37s-6.26,0-7.81.47A2.46,2.46,0,0,0,9.2,14.06a25.36,25.36,0,0,0-.4,4.82,25.36,25.36,0,0,0,.46,4.81A2.5,2.5,0,0,0,11,25.44c1.55.41,7.81.37,7.81.37s6.26,0,7.81-.46a2.53,2.53,0,0,0,1.76-1.78,26,26,0,0,0,.39-4.82A25.82,25.82,0,0,0,28.36,13.94ZM16.83,21.82l0-6,5.21,3Z"/></g></g></svg>