<svg xmlns="http://www.w3.org/2000/svg" xmlns:xlink="http://www.w3.org/1999/xlink" viewBox="0 0 64 66.12"><defs><style>.cls-1{fill:none;}.cls-2{clip-path:url(#clip-path);}.cls-3{fill:#99cb77;}.cls-4{fill:#fff;}</style><clipPath id="clip-path"><circle class="cls-1" cx="32.72" cy="33.06" r="31.28"/></clipPath></defs><title>資產 3</title><g id="圖層_2" data-name="圖層 2"><g id="圖層_1-2" data-name="圖層 1"><g class="cls-2"><circle class="cls-3" cx="32.72" cy="33.06" r="31.28"/><path class="cls-4" d="M31.09,13.46V39.8c0,2.36-2.8,3.61-5.59,3V39.36h-5C19.32,48.85,15.12,60.92,1.29,66c-1.4.51-1.69-.67-.73-1.33,10-7.06,13.53-15.74,14.42-25.31h-4.2v-.15c0,2.36-2.65,3.83-5.59,3.24V11.4l4.27.81c1,.22,1.32.67,1.32,1.18V35.54H15.2V.07l4.56,1c.88.22,1.18.44,1.18,1.18V32.37c0,1,0,2.06-.08,3.17H25.5V11.33l4.41,1C30.72,12.58,31.09,13,31.09,13.46ZM61,13.32V39.8c0,2.36-2.79,3.61-5.59,3V39.44H51.18V62.9c0,2.21-3,3.61-5.74,2.95V39.44H41.17c-.15,2.2-2.72,3.6-5.59,3V11.26l4.27.81c1,.22,1.32.66,1.32,1.17V35.61h4.27V0L50,1c.81.22,1.18.66,1.18,1.1V35.61h4.26V11.18l4.42,1C60.67,12.43,61,12.88,61,13.32Z"/></g></g></g></svg>