<svg xmlns="http://www.w3.org/2000/svg" viewBox="0 0 37.62 37.62"><defs><style>.cls-1{fill:#99cb77;}.cls-2{fill:#fff;}</style></defs><title>資產 1</title><g id="圖層_2" data-name="圖層 2"><g id="圖層_1-2" data-name="圖層 1"><circle class="cls-1" cx="18.81" cy="18.81" r="18.81"/><path class="cls-2" d="M15.19,26.86a11.45,11.45,0,0,0,11.46-11.6c0-.18,0-.35,0-.53a8.23,8.23,0,0,0,2-2.11,8.16,8.16,0,0,1-2.33.65A4,4,0,0,0,28.09,11a7.91,7.91,0,0,1-2.57,1,4,4,0,0,0-3-1.26,4.06,4.06,0,0,0-3.92,5,11.54,11.54,0,0,1-8.38-4.18A4.07,4.07,0,0,0,11.55,17a4.08,4.08,0,0,1-1.84-.5v.05a4.08,4.08,0,0,0,3.27,4,4.18,4.18,0,0,1-1.83.08A4.07,4.07,0,0,0,15,23.36a8.19,8.19,0,0,1-5,1.77,7.77,7.77,0,0,1-1-.06,11.42,11.42,0,0,0,6.22,1.78"/></g></g></svg>