<svg xmlns="http://www.w3.org/2000/svg" viewBox="0 0 37.62 37.62"><defs><style>.cls-1{fill:#99cb77;}.cls-2{fill:#fff;}</style></defs><title>資產 2</title><g id="圖層_2" data-name="圖層 2"><g id="圖層_1-2" data-name="圖層 1"><circle class="cls-1" cx="18.81" cy="18.81" r="18.81"/><path class="cls-2" d="M18.75,8.72c-4.14,0-8.07-.32-9.54,3.54-.61,1.59-.51,3.65-.49,6.61,0,2.59-.05,5,.57,6.61,1.52,3.84,5.47,3.44,9.58,3.42,4,0,8,.36,9.54-3.54.61-1.61.5-3.64.49-6.61,0-3.95.17-6.49-1.75-8.39s-4.56-1.67-8.41-1.64Zm-.9,1.82c8.63-.07,9.72-1,9.2,12.29-.19,4.71-3.78,4.22-8.19,4.25-8,0-8.27-.18-8.32-8.23s.59-8.26,7.31-8.31Zm6.31,1.64a1.21,1.21,0,1,0,1.21,1.2A1.2,1.2,0,0,0,24.16,12.18Zm-5.38,1.45A5.18,5.18,0,1,0,24,18.78a5.17,5.17,0,0,0-5.21-5.15Zm0,1.81c4.45,0,4.49,6.7,0,6.73S14.34,15.47,18.79,15.44Z"/></g></g></svg>