<svg xmlns="http://www.w3.org/2000/svg" viewBox="0 0 123.82 49.01"><defs><style>.cls-1{fill:#95c375;}.cls-2{fill:none;stroke:#95c375;stroke-miterlimit:10;stroke-width:2px;}.cls-3{fill:#fff;}</style></defs><title>資產 3</title><g id="圖層_2" data-name="圖層 2"><g id="圖層_1-2" data-name="圖層 1"><rect class="cls-1" x="7.25" y="7.17" width="109.33" height="34.66"/><rect class="cls-2" x="1" y="1" width="121.82" height="47.01"/><path class="cls-3" d="M25.64,18.27v8.54c0,.76-.91,1.17-1.81,1V26.67H22.2c-.38,3.07-1.74,7-6.22,8.63-.45.17-.55-.21-.24-.43a10.51,10.51,0,0,0,4.67-8.2H19.06v-.05c0,.76-.86,1.24-1.82,1.05V17.6l1.39.27c.33.07.43.21.43.38v7.18h1.43V13.93l1.48.31c.28.07.38.14.38.38V24.4c0,.31,0,.67,0,1h1.51V17.58l1.43.33C25.52,18,25.64,18.13,25.64,18.27Zm9.7-.05v8.59c0,.76-.9,1.17-1.81,1V26.69H32.15V34.3c0,.71-1,1.17-1.86,1V26.69H28.91c-.05.72-.89,1.17-1.82,1V17.56l1.39.26c.33.07.43.21.43.38v7.25h1.38V13.91l1.48.33c.26.07.38.22.38.36V25.45h1.38V17.53l1.43.34C35.23,17.94,35.34,18.08,35.34,18.22Z"/><path class="cls-3" d="M49.49,18.27v8.54c0,.76-.91,1.17-1.82,1V26.67H46.05c-.38,3.07-1.74,7-6.22,8.63-.46.17-.55-.21-.24-.43a10.51,10.51,0,0,0,4.67-8.2H42.9v-.05c0,.76-.85,1.24-1.81,1.05V17.6l1.38.27c.34.07.43.21.43.38v7.18h1.43V13.93l1.48.31c.29.07.38.14.38.38V24.4c0,.31,0,.67,0,1h1.5V17.58l1.43.33C49.37,18,49.49,18.13,49.49,18.27Zm9.7-.05v8.59c0,.76-.9,1.17-1.81,1V26.69H56V34.3c0,.71-1,1.17-1.86,1V26.69H52.75c0,.72-.88,1.17-1.81,1V17.56l1.38.26c.34.07.43.21.43.38v7.25h1.39V13.91l1.48.33c.26.07.38.22.38.36V25.45h1.38V17.53l1.43.34C59.07,17.94,59.19,18.08,59.19,18.22Z"/><path class="cls-3" d="M82.49,16.48a44.7,44.7,0,0,1-7.44,4.15V33.75c0,1.31-1.41,2.15-2.31,1.29a7.85,7.85,0,0,0-3.17-1.79c-.29-.1-.27-.43,0-.43.89,0,2.91.09,3.13,0a.24.24,0,0,0,.19-.24V19.51l1.67.36.07,0a39.71,39.71,0,0,0,4.86-3.69H65.34c-.5,0-.62-.5-1-1.41H79.63a2,2,0,0,0,1.5-.5l1,1.07C82.85,16.1,82.8,16.24,82.49,16.48Z"/><path class="cls-3" d="M108.27,27.19c0,.55-.47.79-1.26.79h-2.15v2.67c0,1-1,1.29-1.91,1.1v-1H98.71V34c0,1.19-1.07,1.88-2,1a7.14,7.14,0,0,0-2.48-1.24c-.26-.07-.24-.36,0-.36.57,0,2.19.09,2.33,0a.19.19,0,0,0,.12-.21V30.79H90.36c-.5,0-.57-.43-.93-1.26h7.32V28H88c-.45,0-.57-.24-1-1.24h9.73V25.21h-6.1c-.43,0-.53-.43-.93-1.24h7V22.23H93c-.12.84-1,1.07-1.88.93V17.72l1.5.29c.26,0,.38.17.4.29h3.77V16.84H88.48c-.41,0-.5-.26-.93-1.22h9.2v-2l1.58.28c.31,0,.38.19.38.38v1.36h7c.46,0,.72-.21,1.15-.71.57.52,1,.76,1,1.17,0,.57-.55.76-1.31.76H98.71V18.3h2.65a1.34,1.34,0,0,0,1.07-.53l1.53.43c1.07.31.38.91.38,1.38v2.1c0,.93-.91,1.31-1.91,1.15v-.6H98.71V24h3.17a1.27,1.27,0,0,0,1.07-.59l1.53.42c1.1.31.38,1,.38,1.48v1.46h1.34a1.51,1.51,0,0,0,1.17-.69C107.89,26.55,108.27,26.79,108.27,27.19ZM96.75,21V19.49H93V21Zm2-1.55V21h3.72V19.49Zm0,7.25H103V25.21H98.71ZM103,28H98.71v1.55H103Z"/></g></g></svg>