<svg xmlns="http://www.w3.org/2000/svg" xmlns:xlink="http://www.w3.org/1999/xlink" viewBox="0 0 126.43 130.62"><defs><style>.cls-1{fill:none;}.cls-2{clip-path:url(#clip-path);}.cls-3{fill:#95c375;}.cls-4{fill:#fff;}</style><clipPath id="clip-path" transform="translate(2.85 3.52)"><circle class="cls-1" cx="61.79" cy="61.79" r="61.79"/></clipPath></defs><g id="圖層_2" data-name="圖層 2"><g id="圖層_1-2" data-name="圖層 1"><g class="cls-2"><circle class="cls-3" cx="64.64" cy="65.31" r="61.79"/><path class="cls-4" d="M58.56,23.08v52c0,4.65-5.52,7.12-11,5.81V74.24H37.63C35.31,93,27,116.82-.3,126.85c-2.76,1-3.34-1.31-1.45-2.62,19.76-14,26.74-31.1,28.48-50H18.45V74c0,4.65-5.23,7.55-11,6.39V19l8.43,1.6c2,.43,2.62,1.3,2.62,2.32V66.68h8.72V-3.38l9,1.89c1.74.44,2.33.87,2.33,2.33V60.43c0,1.89,0,4.07-.15,6.25h9.16V18.86l8.72,2C57.84,21.33,58.56,22.2,58.56,23.08Zm59.16-.29V75.11c0,4.65-5.53,7.12-11,5.81V74.38H98.24v46.36c0,4.37-5.81,7.13-11.34,5.82V74.38H78.47c-.29,4.36-5.37,7.12-11,6V18.72l8.43,1.59c2,.44,2.61,1.31,2.61,2.33V66.82H86.9V-3.52l9,2C97.51-1,98.24-.18,98.24.69V66.82h8.43V18.57l8.72,2C117,21,117.72,21.91,117.72,22.79Z" transform="translate(2.85 3.52)"/></g></g></g></svg>