<svg xmlns="http://www.w3.org/2000/svg" viewBox="0 0 37.62 37.62"><defs><style>.cls-1{fill:#99cb77;}.cls-2{fill:#fff;}</style></defs><title>資產 3</title><g id="圖層_2" data-name="圖層 2"><g id="圖層_1-2" data-name="圖層 1"><circle class="cls-1" cx="18.81" cy="18.81" r="18.81"/><path id="Shape" class="cls-2" d="M11.1,14.13a.75.75,0,0,0-.26-.66L9,11.22v-.34l5.83,0,4.58,9.87,3.9-9.92,5.57,0v.33l-1.6,1.56a.46.46,0,0,0-.18.45l.07,11.32a.51.51,0,0,0,.18.45l1.58,1.53v.34l-7.9.05v-.34l1.62-1.59c.15-.16.15-.21.15-.45l-.05-9.15L18.26,26.77h-.61L12.31,15.32l0,7.7a1.08,1.08,0,0,0,.3.88l2.13,2.55v.34l-6,0v-.33l2.1-2.58a1.08,1.08,0,0,0,.27-.89l-.06-8.89Z"/></g></g></svg>