<svg xmlns="http://www.w3.org/2000/svg" viewBox="0 0 29.7 26.5"><defs><style>.cls-1{fill:#ffffff;}</style></defs><title>資產 2</title><g id="圖層_2" data-name="圖層 2"><g id="圖層_1-2" data-name="圖層 1"><path class="cls-1" d="M8.59,20.4a1,1,0,0,1,0-1.95c3.6,0,13.11,0,16.84,0a2.16,2.16,0,0,0,2.11-1.68l2.12-9.15A1.76,1.76,0,0,0,28,5.47L7.24,5.38l-1-3.83A2.12,2.12,0,0,0,4.18,0H.87a.87.87,0,0,0,0,1.74H4.18A.35.35,0,0,1,4.52,2l4,14.7a2.72,2.72,0,0,0-2.62,2.76,2.72,2.72,0,0,0,2.72,2.67H9.86a3.05,3.05,0,1,0,5.5,0h5.5a3.05,3.05,0,1,0,5.48,0,.87.87,0,0,0-.28-1.7Zm5.32,3.05a1.31,1.31,0,1,1-1.3-1.31h0A1.31,1.31,0,0,1,13.91,23.45Zm9.7,1.31a1.31,1.31,0,0,1,0-2.62h0a1.31,1.31,0,0,1,0,2.62ZM28,7.21v0l-.89,3.85h-3l.52-3.89,3.37,0Zm-9,9.5V12.82h3.09l-.51,3.89Zm-4.32,0-.51-3.89h3.09v3.89Zm-4,0h0a.46.46,0,0,1-.45-.34l-1-3.55h3.15l.52,3.89Zm3.25-5.63-.52-3.93h3.85v3.92Zm5.07,0V7.17l3.83,0-.51,3.89ZM11.63,7.14l.53,3.94H8.77l-1.06-4Zm13.8,9.57H23.31l.51-3.89h2.85l-.82,3.56A.44.44,0,0,1,25.43,16.71Z"/></g></g></svg>